<svg version="1.1" id="Layer_1" xmlns="http://www.w3.org/2000/svg" xmlns:xlink="http://www.w3.org/1999/xlink" x="0px" y="0px"
	 width="100%" viewBox="0 0 2048 2048" enable-background="new 0 0 2048 2048" xml:space="preserve">
<path fill="#161616" opacity="1.000000" stroke="none" 
	d="
M3.999996,2049.000000 
	C3.555583,2049.000000 3.111165,2049.000000 2.412934,2048.537109 
	C2.166611,2016.934448 2.176137,1985.794678 2.181266,1954.654907 
	C2.214036,1755.686646 2.260369,1556.718384 2.273430,1357.750122 
	C2.284041,1196.094238 2.264856,1034.438232 2.231235,872.782349 
	C2.226258,848.853882 2.068817,824.925415 2.058318,800.533142 
	C2.215626,766.792297 2.360445,733.515198 2.365751,700.238159 
	C2.383456,589.205139 2.343446,478.172150 2.340208,367.139160 
	C2.336960,255.740128 2.351326,144.341095 2.357815,32.942055 
	C2.358404,22.825583 2.357893,12.709109 2.357893,2.123502 
	C15.618534,2.123502 28.411846,2.123541 41.205158,2.123496 
	C384.838104,2.122272 728.471069,2.114135 1072.104004,2.121968 
	C1352.910645,2.128368 1633.717285,2.161665 1914.523926,2.162823 
	C1959.349243,2.163007 2004.174683,2.056944 2049.000000,2.000000 
	C2049.000000,683.704285 2049.000000,1365.408569 2048.546387,2047.563599 
	C1523.217407,2048.016113 998.342102,2048.016846 473.466766,2048.020020 
	C319.503571,2048.020752 165.540375,2048.023926 11.577178,2048.073486 
	C9.051351,2048.074219 6.525717,2048.677734 3.999996,2049.000000 
M631.221558,998.711060 
	C587.750427,1059.947144 544.279358,1121.183350 500.425507,1182.958618 
	C502.526398,1182.958618 503.828644,1182.958862 505.130920,1182.958618 
	C538.793396,1182.954224 572.456970,1182.814331 606.117188,1183.087524 
	C611.329102,1183.129761 614.214172,1181.505371 617.177307,1177.292114 
	C653.041565,1126.298096 689.132751,1075.463745 725.162170,1024.585938 
	C735.978394,1009.312134 746.786743,994.032776 757.836609,978.419983 
	C760.079468,981.519043 762.148621,984.280090 764.116516,987.111572 
	C808.450195,1050.899414 852.803772,1114.673706 897.012634,1178.548096 
	C899.394714,1181.989746 901.859375,1183.054077 905.925781,1183.050903 
	C1044.242310,1182.945068 1182.559326,1183.153931 1320.874878,1182.796753 
	C1344.958374,1182.734497 1369.127563,1181.268311 1393.093140,1178.835938 
	C1423.941040,1175.705078 1453.928467,1168.421143 1481.743774,1154.027954 
	C1510.407715,1139.195557 1531.862915,1117.566895 1542.996460,1086.853760 
	C1554.322510,1055.609131 1555.612915,1023.450867 1549.951538,990.935608 
	C1542.976440,950.874756 1522.348755,920.144531 1486.490845,900.361694 
	C1452.046753,881.358948 1414.331665,874.176880 1375.674927,871.053650 
	C1338.093384,868.017334 1300.514038,868.851196 1263.048340,872.945923 
	C1234.049072,876.115479 1205.787964,882.415283 1179.181519,894.870605 
	C1149.546387,908.743591 1126.582275,929.420715 1113.316406,959.859192 
	C1104.743286,979.529846 1101.941772,1000.404907 1101.256714,1021.599487 
	C1100.630615,1040.971436 1103.095581,1060.028198 1108.323975,1078.861206 
	C1142.242065,1078.861206 1175.941772,1078.861206 1209.907715,1078.861206 
	C1208.562744,1076.618530 1207.310303,1074.706665 1206.230347,1072.702026 
	C1195.033569,1051.918091 1192.967896,1029.737427 1196.506226,1006.812683 
	C1200.730713,979.441589 1216.519775,961.755920 1243.208252,955.325989 
	C1258.930786,951.538025 1275.253662,949.340820 1291.414917,948.493713 
	C1313.733521,947.323792 1336.159546,947.776306 1358.529541,948.142822 
	C1378.335083,948.467407 1398.035889,950.079468 1416.908813,957.031250 
	C1437.819580,964.733704 1452.163940,978.588318 1455.775757,1001.008972 
	C1457.739868,1013.200928 1458.304199,1025.842896 1457.663940,1038.186768 
	C1455.934082,1071.538086 1439.793213,1089.617188 1407.371704,1097.315186 
	C1384.974976,1102.632812 1362.247559,1103.667236 1339.439087,1103.707520 
	C1245.801270,1103.873047 1152.163086,1103.858398 1058.525024,1103.851440 
	C1027.700317,1103.849121 996.875488,1103.592896 966.051147,1103.654419 
	C961.392090,1103.663696 958.262207,1102.122803 955.754517,1098.262939 
	C952.318481,1092.973999 948.475769,1087.951050 944.874817,1082.767212 
	C902.595520,1021.903809 860.398193,960.983154 817.957397,900.232544 
	C813.440735,893.767334 808.336853,887.192688 802.112061,882.528381 
	C771.475037,859.572449 725.605286,866.777405 703.118774,897.906677 
	C679.091736,931.168762 655.480225,964.730957 631.221558,998.711060 
M964.606628,1045.892578 
	C975.353882,1061.625732 986.101074,1077.358887 996.848328,1093.092041 
	C997.132935,1092.866333 997.417542,1092.640747 997.702148,1092.415039 
	C997.702148,1019.735291 997.702148,947.055603 997.702148,874.429626 
	C965.295288,874.429626 933.253662,874.429626 900.998535,874.429626 
	C900.998535,898.196045 901.182007,921.669861 900.874878,945.137207 
	C900.793884,951.321716 902.596741,956.212402 906.068176,961.187988 
	C925.569153,989.137329 944.820801,1017.260681 964.606628,1045.892578 
M899.359802,1406.335693 
	C899.359802,1389.059082 899.359802,1371.782593 899.359802,1354.364624 
	C922.684692,1354.364624 945.713013,1354.364624 969.241577,1354.364624 
	C969.241577,1372.123047 969.241577,1389.526611 969.241577,1406.694336 
	C974.821411,1406.694336 979.890991,1406.694336 984.678467,1406.694336 
	C984.678467,1367.215576 984.678467,1328.138184 984.678467,1289.191040 
	C979.267395,1289.191040 974.185364,1289.191040 968.769775,1289.191040 
	C968.769775,1306.098999 968.769775,1322.689819 968.769775,1339.549438 
	C945.539124,1339.549438 922.651062,1339.549438 899.197754,1339.549438 
	C899.197754,1322.581421 899.197754,1305.886353 899.197754,1289.170410 
	C893.533569,1289.170410 888.437927,1289.170410 883.143433,1289.170410 
	C883.143433,1328.453857 883.143433,1367.512695 883.143433,1406.930542 
	C888.481628,1406.930542 893.600708,1406.930542 899.359802,1406.335693 
M1139.006104,1288.904053 
	C1134.339722,1289.263672 1134.398193,1293.650513 1133.088867,1296.444580 
	C1118.649414,1327.260620 1104.439819,1358.184448 1090.164673,1389.077393 
	C1087.456787,1394.937500 1084.733765,1400.790527 1081.891602,1406.918701 
	C1087.961792,1406.918701 1093.270264,1406.918701 1098.520630,1406.918701 
	C1102.951172,1397.187988 1107.315918,1387.601685 1111.727905,1377.911621 
	C1133.120483,1377.911621 1154.251953,1377.849243 1175.380859,1378.053955 
	C1176.765015,1378.067261 1178.695435,1379.842773 1179.408447,1381.277344 
	C1183.168213,1388.840942 1186.517578,1396.608154 1190.272583,1404.174316 
	C1190.916626,1405.472168 1192.776978,1406.859009 1194.170166,1406.965454 
	C1198.757812,1407.316162 1203.389038,1407.097412 1208.485596,1407.097412 
	C1207.903442,1405.582031 1207.569336,1404.523315 1207.103394,1403.526001 
	C1191.147461,1369.380737 1174.679565,1335.460815 1159.530151,1300.961792 
	C1155.223755,1291.155396 1150.177246,1286.899902 1139.006104,1288.904053 
M762.606628,1402.135742 
	C768.043274,1398.231934 773.479858,1394.328125 780.442993,1389.328247 
	C775.988159,1384.891846 772.769897,1381.687012 769.526001,1378.456543 
	C748.345215,1400.625977 714.611206,1397.043945 698.847473,1380.612671 
	C682.480408,1363.552246 681.453613,1334.769531 697.277161,1316.562134 
	C705.418701,1307.194092 715.854919,1302.341309 728.148499,1301.311157 
	C743.936096,1299.988403 757.501892,1304.854736 768.783142,1316.455688 
	C772.269714,1312.637695 775.457153,1309.147339 778.588928,1305.717896 
	C777.864685,1304.737671 777.620483,1304.295288 777.273254,1303.959473 
	C776.438293,1303.151855 775.579773,1302.364258 774.687500,1301.620605 
	C759.386047,1288.870605 741.647888,1285.256104 722.353149,1287.937378 
	C699.695618,1291.086060 682.937561,1302.772949 674.402161,1324.128052 
	C666.261230,1344.496216 667.832092,1364.759277 680.646484,1382.958862 
	C698.234924,1407.938477 732.111084,1415.744507 762.606628,1402.135742 
M1906.133301,1946.121338 
	C1920.187500,1954.186035 1929.249023,1966.217285 1934.452637,1981.418701 
	C1934.967773,1982.923340 1936.638428,1984.032471 1937.772583,1985.325317 
	C1938.872925,1984.062256 1940.211914,1982.936768 1941.033203,1981.512695 
	C1944.989746,1974.652710 1948.222412,1967.293091 1952.808594,1960.897339 
	C1959.892456,1951.018799 1970.282837,1945.368164 1981.507080,1941.140747 
	C1982.934814,1940.603027 1983.954346,1938.981201 1985.162964,1937.861694 
	C1983.977539,1936.704346 1982.978516,1935.196533 1981.574585,1934.449951 
	C1975.452637,1931.193726 1968.796875,1928.771606 1963.107056,1924.909302 
	C1952.795898,1917.909668 1946.176147,1907.845947 1941.881958,1896.162720 
	C1940.978394,1893.703979 1939.091309,1891.606689 1937.657349,1889.342896 
	C1937.061523,1889.410889 1936.465576,1889.478882 1935.869629,1889.546997 
	C1929.259399,1913.946533 1913.465942,1929.151001 1888.812500,1935.945801 
	C1893.336182,1942.631958 1900.288452,1942.730103 1906.133301,1946.121338 
M1342.865479,1306.500977 
	C1342.964111,1305.204224 1343.062744,1303.907349 1343.193726,1302.184814 
	C1356.624390,1302.184814 1369.824219,1302.184814 1383.125122,1302.184814 
	C1383.125122,1297.615723 1383.125122,1293.494141 1383.125122,1289.130371 
	C1350.570557,1289.130371 1318.188354,1289.130371 1285.528564,1289.130371 
	C1285.528564,1293.577881 1285.528564,1297.797852 1285.528564,1302.709595 
	C1299.363159,1302.709595 1312.881348,1302.709595 1326.614990,1302.709595 
	C1326.614990,1337.811157 1326.614990,1372.220459 1326.614990,1406.714478 
	C1332.246704,1406.714478 1337.637085,1406.714478 1342.864502,1406.714478 
	C1342.864502,1373.416748 1342.864502,1340.459473 1342.865479,1306.500977 
z"/>
<path fill="#E4E8E6" opacity="1.000000" stroke="none" 
	d="
M2049.000000,1.500000 
	C2004.174683,2.056944 1959.349243,2.163007 1914.523926,2.162823 
	C1633.717285,2.161665 1352.910645,2.128368 1072.104004,2.121968 
	C728.471069,2.114135 384.838104,2.122272 41.205158,2.123496 
	C28.411846,2.123541 15.618534,2.123502 2.357893,2.123502 
	C2.357893,12.709109 2.358404,22.825583 2.357815,32.942055 
	C2.351326,144.341095 2.336960,255.740128 2.340208,367.139160 
	C2.343446,478.172150 2.383456,589.205139 2.365751,700.238159 
	C2.360445,733.515198 2.215626,766.792297 1.812849,800.535156 
	C1.490975,801.000977 1.000000,801.000000 1.000000,801.000000 
	C1.000000,534.380066 1.000000,267.760162 1.000000,1.000000 
	C683.666687,1.000000 1366.333374,1.000000 2049.000000,1.500000 
z"/>
<path fill="#6B6D6B" opacity="1.000000" stroke="none" 
	d="
M4.453629,2049.000000 
	C6.525717,2048.677734 9.051351,2048.074219 11.577178,2048.073486 
	C165.540375,2048.023926 319.503571,2048.020752 473.466766,2048.020020 
	C998.342102,2048.016846 1523.217407,2048.016113 2048.546387,2048.007324 
	C2048.833496,2048.333252 2048.684082,2048.943848 2048.497559,2048.955566 
	C2047.169678,2049.039062 2045.834106,2049.000000 2044.501099,2049.000000 
	C1364.636475,2049.000000 684.771851,2049.000000 4.453629,2049.000000 
z"/>
<path fill="#F4F5F2" opacity="1.000000" stroke="none" 
	d="
M1.000000,801.468628 
	C1.000000,801.000000 1.490975,801.000977 1.736444,800.998962 
	C2.068817,824.925415 2.226258,848.853882 2.231235,872.782349 
	C2.264856,1034.438232 2.284041,1196.094238 2.273430,1357.750122 
	C2.260369,1556.718384 2.214036,1755.686646 2.181266,1954.654907 
	C2.176137,1985.794678 2.166611,2016.934448 2.079537,2048.537109 
	C1.666621,2048.833496 1.056154,2048.684326 1.044422,2048.497803 
	C0.961045,2047.170044 1.000000,2045.834839 1.000000,2044.501953 
	C1.000000,1630.313721 1.000000,1216.125488 1.000000,801.468628 
z"/>
<path fill="#FDFDFD" opacity="1.000000" stroke="none" 
	d="
M631.454468,998.436584 
	C655.480225,964.730957 679.091736,931.168762 703.118774,897.906677 
	C725.605286,866.777405 771.475037,859.572449 802.112061,882.528381 
	C808.336853,887.192688 813.440735,893.767334 817.957397,900.232544 
	C860.398193,960.983154 902.595520,1021.903809 944.874817,1082.767212 
	C948.475769,1087.951050 952.318481,1092.973999 955.754517,1098.262939 
	C958.262207,1102.122803 961.392090,1103.663696 966.051147,1103.654419 
	C996.875488,1103.592896 1027.700317,1103.849121 1058.525024,1103.851440 
	C1152.163086,1103.858398 1245.801270,1103.873047 1339.439087,1103.707520 
	C1362.247559,1103.667236 1384.974976,1102.632812 1407.371704,1097.315186 
	C1439.793213,1089.617188 1455.934082,1071.538086 1457.663940,1038.186768 
	C1458.304199,1025.842896 1457.739868,1013.200928 1455.775757,1001.008972 
	C1452.163940,978.588318 1437.819580,964.733704 1416.908813,957.031250 
	C1398.035889,950.079468 1378.335083,948.467407 1358.529541,948.142822 
	C1336.159546,947.776306 1313.733521,947.323792 1291.414917,948.493713 
	C1275.253662,949.340820 1258.930786,951.538025 1243.208252,955.325989 
	C1216.519775,961.755920 1200.730713,979.441589 1196.506226,1006.812683 
	C1192.967896,1029.737427 1195.033569,1051.918091 1206.230347,1072.702026 
	C1207.310303,1074.706665 1208.562744,1076.618530 1209.907715,1078.861206 
	C1175.941772,1078.861206 1142.242065,1078.861206 1108.323975,1078.861206 
	C1103.095581,1060.028198 1100.630615,1040.971436 1101.256714,1021.599487 
	C1101.941772,1000.404907 1104.743286,979.529846 1113.316406,959.859192 
	C1126.582275,929.420715 1149.546387,908.743591 1179.181519,894.870605 
	C1205.787964,882.415283 1234.049072,876.115479 1263.048340,872.945923 
	C1300.514038,868.851196 1338.093384,868.017334 1375.674927,871.053650 
	C1414.331665,874.176880 1452.046753,881.358948 1486.490845,900.361694 
	C1522.348755,920.144531 1542.976440,950.874756 1549.951538,990.935608 
	C1555.612915,1023.450867 1554.322510,1055.609131 1542.996460,1086.853760 
	C1531.862915,1117.566895 1510.407715,1139.195557 1481.743774,1154.027954 
	C1453.928467,1168.421143 1423.941040,1175.705078 1393.093140,1178.835938 
	C1369.127563,1181.268311 1344.958374,1182.734497 1320.874878,1182.796753 
	C1182.559326,1183.153931 1044.242310,1182.945068 905.925781,1183.050903 
	C901.859375,1183.054077 899.394714,1181.989746 897.012634,1178.548096 
	C852.803772,1114.673706 808.450195,1050.899414 764.116516,987.111572 
	C762.148621,984.280090 760.079468,981.519043 757.836609,978.419983 
	C746.786743,994.032776 735.978394,1009.312134 725.162170,1024.585938 
	C689.132751,1075.463745 653.041565,1126.298096 617.177307,1177.292114 
	C614.214172,1181.505371 611.329102,1183.129761 606.117188,1183.087524 
	C572.456970,1182.814331 538.793396,1182.954224 505.130920,1182.958618 
	C503.828644,1182.958862 502.526398,1182.958618 500.425507,1182.958618 
	C544.279358,1121.183350 587.750427,1059.947144 631.454468,998.436584 
z"/>
<path fill="#FDFDFC" opacity="1.000000" stroke="none" 
	d="
M964.382080,1045.608643 
	C944.820801,1017.260681 925.569153,989.137329 906.068176,961.187988 
	C902.596741,956.212402 900.793884,951.321716 900.874878,945.137207 
	C901.182007,921.669861 900.998535,898.196045 900.998535,874.429626 
	C933.253662,874.429626 965.295288,874.429626 997.702148,874.429626 
	C997.702148,947.055603 997.702148,1019.735291 997.702148,1092.415039 
	C997.417542,1092.640747 997.132935,1092.866333 996.848328,1093.092041 
	C986.101074,1077.358887 975.353882,1061.625732 964.382080,1045.608643 
z"/>
<path fill="#F9FAF8" opacity="1.000000" stroke="none" 
	d="
M899.039795,1406.633057 
	C893.600708,1406.930542 888.481628,1406.930542 883.143433,1406.930542 
	C883.143433,1367.512695 883.143433,1328.453857 883.143433,1289.170410 
	C888.437927,1289.170410 893.533569,1289.170410 899.197754,1289.170410 
	C899.197754,1305.886353 899.197754,1322.581421 899.197754,1339.549438 
	C922.651062,1339.549438 945.539124,1339.549438 968.769775,1339.549438 
	C968.769775,1322.689819 968.769775,1306.098999 968.769775,1289.191040 
	C974.185364,1289.191040 979.267395,1289.191040 984.678467,1289.191040 
	C984.678467,1328.138184 984.678467,1367.215576 984.678467,1406.694336 
	C979.890991,1406.694336 974.821411,1406.694336 969.241577,1406.694336 
	C969.241577,1389.526611 969.241577,1372.123047 969.241577,1354.364624 
	C945.713013,1354.364624 922.684692,1354.364624 899.359802,1354.364624 
	C899.359802,1371.782593 899.359802,1389.059082 899.039795,1406.633057 
z"/>
<path fill="#F4F5F2" opacity="1.000000" stroke="none" 
	d="
M1139.457031,1288.900757 
	C1150.177246,1286.899902 1155.223755,1291.155396 1159.530151,1300.961792 
	C1174.679565,1335.460815 1191.147461,1369.380737 1207.103394,1403.526001 
	C1207.569336,1404.523315 1207.903442,1405.582031 1208.485596,1407.097412 
	C1203.389038,1407.097412 1198.757812,1407.316162 1194.170166,1406.965454 
	C1192.776978,1406.859009 1190.916626,1405.472168 1190.272583,1404.174316 
	C1186.517578,1396.608154 1183.168213,1388.840942 1179.408447,1381.277344 
	C1178.695435,1379.842773 1176.765015,1378.067261 1175.380859,1378.053955 
	C1154.251953,1377.849243 1133.120483,1377.911621 1111.727905,1377.911621 
	C1107.315918,1387.601685 1102.951172,1397.187988 1098.520630,1406.918701 
	C1093.270264,1406.918701 1087.961792,1406.918701 1081.891602,1406.918701 
	C1084.733765,1400.790527 1087.456787,1394.937500 1090.164673,1389.077393 
	C1104.439819,1358.184448 1118.649414,1327.260620 1133.088867,1296.444580 
	C1134.398193,1293.650513 1134.339722,1289.263672 1139.457031,1288.900757 
M1145.919434,1306.638672 
	C1145.601196,1306.106567 1145.282837,1305.574341 1144.811523,1304.786255 
	C1135.786987,1324.580444 1126.927124,1344.013428 1117.945312,1363.714111 
	C1136.004761,1363.714111 1153.509644,1363.714111 1171.753052,1363.714111 
	C1163.062988,1344.552368 1154.623779,1325.944092 1145.919434,1306.638672 
z"/>
<path fill="#F4F5F2" opacity="1.000000" stroke="none" 
	d="
M762.272705,1402.306396 
	C732.111084,1415.744507 698.234924,1407.938477 680.646484,1382.958862 
	C667.832092,1364.759277 666.261230,1344.496216 674.402161,1324.128052 
	C682.937561,1302.772949 699.695618,1291.086060 722.353149,1287.937378 
	C741.647888,1285.256104 759.386047,1288.870605 774.687500,1301.620605 
	C775.579773,1302.364258 776.438293,1303.151855 777.273254,1303.959473 
	C777.620483,1304.295288 777.864685,1304.737671 778.588928,1305.717896 
	C775.457153,1309.147339 772.269714,1312.637695 768.783142,1316.455688 
	C757.501892,1304.854736 743.936096,1299.988403 728.148499,1301.311157 
	C715.854919,1302.341309 705.418701,1307.194092 697.277161,1316.562134 
	C681.453613,1334.769531 682.480408,1363.552246 698.847473,1380.612671 
	C714.611206,1397.043945 748.345215,1400.625977 769.526001,1378.456543 
	C772.769897,1381.687012 775.988159,1384.891846 780.442993,1389.328247 
	C773.479858,1394.328125 768.043274,1398.231934 762.272705,1402.306396 
z"/>
<path fill="#FDFDFC" opacity="1.000000" stroke="none" 
	d="
M1905.782104,1945.990112 
	C1900.288452,1942.730103 1893.336182,1942.631958 1888.812500,1935.945801 
	C1913.465942,1929.151001 1929.259399,1913.946533 1935.869629,1889.546997 
	C1936.465576,1889.478882 1937.061523,1889.410889 1937.657349,1889.342896 
	C1939.091309,1891.606689 1940.978394,1893.703979 1941.881958,1896.162720 
	C1946.176147,1907.845947 1952.795898,1917.909668 1963.107056,1924.909302 
	C1968.796875,1928.771606 1975.452637,1931.193726 1981.574585,1934.449951 
	C1982.978516,1935.196533 1983.977539,1936.704346 1985.162964,1937.861694 
	C1983.954346,1938.981201 1982.934814,1940.603027 1981.507080,1941.140747 
	C1970.282837,1945.368164 1959.892456,1951.018799 1952.808594,1960.897339 
	C1948.222412,1967.293091 1944.989746,1974.652710 1941.033203,1981.512695 
	C1940.211914,1982.936768 1938.872925,1984.062256 1937.772583,1985.325317 
	C1936.638428,1984.032471 1934.967773,1982.923340 1934.452637,1981.418701 
	C1929.249023,1966.217285 1920.187500,1954.186035 1905.782104,1945.990112 
z"/>
<path fill="#F4F5F2" opacity="1.000000" stroke="none" 
	d="
M1342.864990,1307.001587 
	C1342.864502,1340.459473 1342.864502,1373.416748 1342.864502,1406.714478 
	C1337.637085,1406.714478 1332.246704,1406.714478 1326.614990,1406.714478 
	C1326.614990,1372.220459 1326.614990,1337.811157 1326.614990,1302.709595 
	C1312.881348,1302.709595 1299.363159,1302.709595 1285.528564,1302.709595 
	C1285.528564,1297.797852 1285.528564,1293.577881 1285.528564,1289.130371 
	C1318.188354,1289.130371 1350.570557,1289.130371 1383.125122,1289.130371 
	C1383.125122,1293.494141 1383.125122,1297.615723 1383.125122,1302.184814 
	C1369.824219,1302.184814 1356.624390,1302.184814 1343.193726,1302.184814 
	C1343.062744,1303.907349 1342.964111,1305.204224 1342.864990,1307.001587 
z"/>
<path fill="#161616" opacity="1.000000" stroke="none" 
	d="
M1146.052002,1306.987183 
	C1154.623779,1325.944092 1163.062988,1344.552368 1171.753052,1363.714111 
	C1153.509644,1363.714111 1136.004761,1363.714111 1117.945312,1363.714111 
	C1126.927124,1344.013428 1135.786987,1324.580444 1144.811523,1304.786255 
	C1145.282837,1305.574341 1145.601196,1306.106567 1146.052002,1306.987183 
z"/>
</svg>